Coordinates
version=1
nRows=9
nColumns=63
inDegrees=yes

Units are S.I. units (second, meters, Newtons, ...)
If the header above contains a line with 'inDegrees', this indicates whether rotational values are in degrees (yes) or radians (no).

endheader
time	pelvis_tilt	pelvis_list	pelvis_rotation	pelvis_tx	pelvis_ty	pelvis_tz	hip_flexion_r	hip_adduction_r	hip_rotation_r	knee_angle_r	knee_angle_r_beta	ankle_angle_r	subtalar_angle_r	mtp_angle_r	hip_flexion_l	hip_adduction_l	hip_rotation_l	knee_angle_l	knee_angle_l_beta	ankle_angle_l	subtalar_angle_l	mtp_angle_l	L5_S1_Flex_Ext	L5_S1_Lat_Bending	L5_S1_axial_rotation	L4_L5_Flex_Ext	L4_L5_Lat_Bending	L4_L5_axial_rotation	L3_L4_Flex_Ext	L3_L4_Lat_Bending	L3_L4_axial_rotation	L2_L3_Flex_Ext	L2_L3_Lat_Bending	L2_L3_axial_rotation	L1_L2_Flex_Ext	L1_L2_Lat_Bending	L1_L2_axial_rotation	L1_T12_Flex_Ext	L1_T12_Lat_Bending	L1_T12_axial_rotation	Abs_r3	Abs_r2	Abs_r1	Abs_t1	Abs_t2	neck_flexion	neck_bending	neck_rotation	arm_flex_r	arm_add_r	arm_rot_r	elbow_flex_r	pro_sup_r	wrist_flex_r	wrist_dev_r	arm_flex_l	arm_add_l	arm_rot_l	elbow_flex_l	pro_sup_l	wrist_flex_l	wrist_dev_l
      7.87500000	    -50.79243518	     -6.06343490	     -1.33415601	     -0.37434649	      1.12219260	      0.03961382	     95.46674942	     -4.54793998	     -4.33886113	     96.76864914	      1.68893154	      7.63332946	      4.80120414	      0.00000000	    103.18447543	     -5.52680805	      7.78871957	     67.79708988	      1.18328244	     14.31766916	      6.81926785	      0.00000000	     -0.08629500	      0.57942781	      0.78175419	     -0.16025845	      0.77063899	      0.83061382	     -0.14177406	      1.40882078	      0.83061382	     -0.09862656	      1.40882078	      0.68403491	     -0.08013354	      1.18156919	      0.63517528	     -0.04930897	      0.89753368	      0.58631564	     -0.61639659	      6.55460329	      4.34788227	      0.00000000	      0.00000000	     -0.00000000	      0.00000000	      0.00000000	     68.72067261	    -17.47576532	     16.19737147	     38.13280267	     51.89875780	      0.00000000	      5.00000014	     69.05918810	     -5.61608475	     12.99433282	     35.48430881	     58.78239830	      0.00000000	      5.00000014
      7.88300000	    -50.69348601	     -5.74275488	     -0.88258199	     -0.37438142	      1.12144253	      0.03941710	     97.02172990	     -5.28189132	     -3.74486999	     99.75050375	      1.74097472	      8.00519451	      4.92887408	      0.00000000	    101.21091200	     -5.30797094	      7.21487085	     64.90594817	      1.13282250	     13.32240692	      7.41936468	      0.00000000	     -0.08526556	      0.54360978	      0.69162814	     -0.15834667	      0.72300101	      0.73485490	     -0.14008279	      1.32173283	      0.73485490	     -0.09745001	      1.32173283	      0.60517462	     -0.07917760	      1.10852907	      0.56194786	     -0.04872074	      0.84205155	      0.51872110	     -0.60904336	      6.14942259	      3.84662821	      0.00000000	      0.00000000	     -0.00000000	      0.00000000	      0.00000000	     68.64473677	    -17.56827267	     16.91469376	     38.38910686	     51.99902179	      0.00000000	      5.00000014	     68.95923898	     -5.74614791	     12.46222156	     35.58377349	     58.70562142	      0.00000000	      5.00000014
      7.89200000	    -50.62595314	     -5.73403623	     -0.96629191	     -0.37429778	      1.12093895	      0.03967467	     98.45899387	     -5.46235038	     -3.55162657	    102.30983897	      1.78564355	      8.62534068	      5.04358828	      0.00000000	     99.32731430	     -5.55720689	      7.04192416	     62.18581763	      1.08534727	     12.50058366	      7.93918613	      0.00000000	     -0.08448974	      0.55257049	      0.71026592	     -0.15690590	      0.73491875	      0.75465753	     -0.13880820	      1.34351989	      0.75465753	     -0.09656333	      1.34351989	      0.62148268	     -0.07845718	      1.12680174	      0.57709106	     -0.04827744	      0.85593169	      0.53269944	     -0.60350179	      6.25078788	      3.95028594	      0.00000000	      0.00000000	     -0.00000000	      0.00000000	      0.00000000	     68.64348882	    -17.72083866	     17.34806753	     38.53267063	     52.05919151	      0.00000000	      5.00000014	     68.75725253	     -5.80800930	     12.13048827	     35.79287570	     58.65524339	      0.00000000	      5.00000014
      7.90000000	    -50.56727114	     -5.72724976	     -1.07649654	     -0.37413587	      1.12053497	      0.03994413	     99.90546690	     -5.63038270	     -3.43537942	    104.68263300	      1.82705662	      9.41386619	      5.18855238	      0.00000000	     97.45169476	     -5.85652357	      6.78981464	     59.57373361	      1.03975780	     11.83513933	      8.57692088	      0.00000000	     -0.08438815	      0.56302273	      0.73215405	     -0.15671723	      0.74882023	      0.77791368	     -0.13864129	      1.36893346	      0.77791368	     -0.09644722	      1.36893346	      0.64063480	     -0.07836284	      1.14811595	      0.59487517	     -0.04821939	      0.87212221	      0.54911554	     -0.60277611	      6.36902570	      4.07202120	      0.00000000	      0.00000000	     -0.00000000	      0.00000000	      0.00000000	     68.64902983	    -17.85768092	     17.73633234	     38.66379364	     52.12333624	      0.00000000	      5.00000014	     68.53509784	     -5.88764589	     11.80004650	     36.03712311	     58.62806190	      0.00000000	      5.00000014
      7.90800000	    -50.52125286	     -5.96113498	     -1.50189831	     -0.37385578	      1.12027448	      0.04044583	    101.28305320	     -5.52434746	     -3.72011831	    106.74214522	      1.86300188	     10.06827154	      5.10174486	      0.00000000	     95.67961115	     -6.44611359	      6.75092284	     57.19215421	      0.99819140	     11.16865432	      8.77124106	      0.00000000	     -0.08479256	      0.60800261	      0.81930816	     -0.15746826	      0.80864347	      0.87051493	     -0.13930569	      1.47829754	      0.87051493	     -0.09690941	      1.47829754	      0.71689464	     -0.07873837	      1.23983892	      0.66568788	     -0.04845047	      0.94179604	      0.61448112	     -0.60566475	      6.87784711	      4.55674622	      0.00000000	      0.00000000	     -0.00000000	      0.00000000	      0.00000000	     68.68418345	    -18.01134405	     17.82605530	     38.72564677	     52.13009643	      0.00000000	      5.00000014	     68.29664866	     -5.91671946	     11.71582557	     36.19714378	     58.59979889	      0.00000000	      5.00000014
      7.91700000	    -50.47881916	     -6.06086151	     -1.73926825	     -0.37340201	      1.12008847	      0.04089463	    102.67636993	     -5.57189058	     -3.89989093	    108.66471342	      1.89655703	     10.93199927	      4.93118216	      0.00000000	     93.87105429	     -6.87651196	      6.51127765	     54.86398745	      0.95755722	     10.67745550	      9.00785609	      0.00000000	     -0.08496898	      0.63246280	      0.86742226	     -0.15779589	      0.84117552	      0.92163616	     -0.13959554	      1.53777005	      0.92163616	     -0.09711105	      1.53777005	      0.75899448	     -0.07890219	      1.28971814	      0.70478059	     -0.04855127	      0.97968488	      0.65056670	     -0.60692492	      7.15454567	      4.82434241	      0.00000000	      0.00000000	     -0.00000000	      0.00000000	      0.00000000	     68.65271201	    -18.14033129	     17.96543608	     38.84034625	     52.14142884	      0.00000000	      5.00000014	     68.04903016	     -5.97259126	     11.58650478	     36.39758718	     58.56127201	      0.00000000	      5.00000014
      7.92500000	    -50.41637370	     -5.64858844	     -1.59605848	     -0.37273205	      1.11968575	      0.04116451	    104.17461968	     -5.91772503	     -3.52955093	    110.60262567	      1.93037998	     12.39251339	      4.76139734	      0.00000000	     91.95463050	     -6.94301352	      5.70938635	     52.65214154	      0.91895323	     10.60158833	      9.59011886	      0.00000000	     -0.08417329	      0.58808857	      0.83364599	     -0.15631822	      0.78215780	      0.88574887	     -0.13828830	      1.42987855	      0.88574887	     -0.09620165	      1.42987855	      0.72944024	     -0.07816332	      1.19923021	      0.67733737	     -0.04809662	      0.91094919	      0.62523449	     -0.60124139	      6.65257552	      4.63648892	      0.00000000	      0.00000000	     -0.00000000	      0.00000000	      0.00000000	     68.43529077	    -18.18911552	     18.17973966	     39.11270817	     52.16672550	      0.00000000	      5.00000014	     67.79853263	     -6.15810183	     11.20843351	     36.71152290	     58.50020808	      0.00000000	      5.00000014
      7.93300000	    -50.38954939	     -5.83080883	     -2.04645604	     -0.37201923	      1.11960156	      0.04193185	    105.52404584	     -5.75095463	     -3.92757248	    112.04328006	      1.95552414	     13.14774869	      4.63015802	      0.00000000	     90.32716291	     -7.54646815	      5.57855576	     50.84669421	      0.88744223	     10.23320247	      9.48531357	      0.00000000	     -0.08384106	      0.62368381	      0.92323511	     -0.15570123	      0.82949946	      0.98093731	     -0.13774248	      1.51642481	      0.98093731	     -0.09582195	      1.51642481	      0.80783073	     -0.07785481	      1.27181602	      0.75012853	     -0.04790678	      0.96608622	      0.69242634	     -0.59886832	      7.05523597	      5.13475674	      0.00000000	      0.00000000	     -0.00000000	      0.00000000	      0.00000000	     68.36445124	    -18.26796880	     18.13903102	     39.20264637	     52.14717737	      0.00000000	      5.00000014	     67.58820737	     -6.16832730	     11.15707550	     36.81044614	     58.46443085	      0.00000000	      5.00000014
      7.94200000	    -50.35811599	     -5.59693123	     -2.33877033	     -0.37114102	      1.11947246	      0.04291363	    106.89442141	     -5.59845527	     -3.94731774	    113.34461419	      1.97823671	     14.59114993	      4.35657072	      0.00000000	     88.63670954	     -7.95692193	      5.03292259	     49.17319238	      0.85823411	     10.28684399	      9.21357776	      0.00000000	     -0.08469108	      0.59952171	      0.98119739	     -0.15727981	      0.79736388	      1.04252223	     -0.13913898	      1.45767709	      1.04252223	     -0.09679344	      1.45767709	      0.85854772	     -0.07864414	      1.22254468	      0.79722288	     -0.04839248	      0.92865913	      0.73589805	     -0.60493993	      6.78190953	      5.45712555	      0.00000000	      0.00000000	     -0.00000000	      0.00000000	      0.00000000	     68.05514981	    -18.30138496	     17.92348736	     39.59577899	     52.11195741	      0.00000000	      5.00000014	     67.42807876	     -6.22352917	     10.95935693	     36.97948400	     58.43276543	      0.00000000	      5.00000014
